# Blender 4.3.0
# www.blender.org
mtllib LowPolyUVSphere.mtl
o Sphere
v 0.000000 0.707107 -0.707107
v 0.000000 0.000000 -1.000000
v 0.000000 -0.707107 -0.707107
v 0.000000 -1.000000 0.000000
v 0.672499 0.707107 -0.218508
v 0.951057 0.000000 -0.309017
v 0.672499 -0.707107 -0.218508
v 0.415627 0.707107 0.572061
v 0.587785 0.000000 0.809017
v 0.415627 -0.707107 0.572061
v 0.000000 1.000000 0.000000
v -0.415627 0.707107 0.572061
v -0.587785 0.000000 0.809017
v -0.415627 -0.707107 0.572061
v -0.672498 0.707107 -0.218508
v -0.951057 0.000000 -0.309017
v -0.672498 -0.707107 -0.218508
vn 0.2679 -0.8901 -0.3687
vn 0.5573 0.3177 -0.7671
vn 0.5573 -0.3177 -0.7671
vn 0.2679 0.8901 -0.3687
vn 0.9018 0.3177 0.2930
vn 0.9018 -0.3177 0.2930
vn 0.4334 0.8901 0.1408
vn 0.4334 -0.8901 0.1408
vn -0.0000 -0.8901 0.4557
vn -0.0000 0.3177 0.9482
vn -0.0000 -0.3177 0.9482
vn -0.0000 0.8901 0.4557
vn -0.4334 -0.8901 0.1408
vn -0.9018 0.3177 0.2930
vn -0.9018 -0.3177 0.2930
vn -0.4334 0.8901 0.1408
vn -0.2679 -0.8901 -0.3687
vn -0.5573 0.3177 -0.7671
vn -0.5573 -0.3177 -0.7671
vn -0.2679 0.8901 -0.3687
vt 0.158017 0.168841
vt 0.000000 0.273190
vt 0.000000 0.064491
vt 0.604712 0.850573
vt 0.647935 0.663341
vt 0.856633 0.663341
vt 0.899856 0.850573
vt 0.647935 1.000000
vt 0.856633 1.000000
vt 0.507333 0.326682
vt 0.458924 0.143612
vt 0.629559 0.165981
vt 0.309568 0.850573
vt 0.352791 0.663341
vt 0.561489 0.663341
vt 0.352791 1.000000
vt 0.561489 1.000000
vt 0.507333 -0.000000
vt 0.191323 -0.000000
vt 0.309568 0.168841
vt 0.309568 0.513914
vt 0.352791 0.326682
vt 0.561489 0.326682
vt 0.604712 0.513914
vt 0.352791 0.663341
vt 0.561489 0.663341
vt 0.309568 0.058119
vt 0.191323 0.337681
vt 0.000000 0.487108
vt 0.043223 0.337681
vt 0.251921 0.337681
vt 0.295144 0.487108
vt 0.043223 0.674340
vt 0.251921 0.674340
vt 0.309568 0.260019
vt 0.604712 0.476108
vt 0.647935 0.326682
vt 0.856633 0.326682
vt 0.899856 0.476108
s 0
usemtl Material.001
f 4/1/1 3/2/1 7/3/1
f 2/4/2 1/5/2 5/6/2 6/7/2
f 3/8/3 2/4/3 6/7/3 7/9/3
f 1/10/4 11/11/4 5/12/4
f 6/13/5 5/14/5 8/15/5 9/4/5
f 7/16/6 6/13/6 9/4/6 10/17/6
f 5/12/7 11/11/7 8/18/7
f 4/1/8 7/3/8 10/19/8
f 4/1/9 10/19/9 14/20/9
f 9/21/10 8/22/10 12/23/10 13/24/10
f 10/25/11 9/21/11 13/24/11 14/26/11
f 8/18/12 11/11/12 12/27/12
f 4/1/13 14/20/13 17/28/13
f 13/29/14 12/30/14 15/31/14 16/32/14
f 14/33/15 13/29/15 16/32/15 17/34/15
f 12/27/16 11/11/16 15/35/16
f 4/1/17 17/28/17 3/2/17
f 16/36/18 15/37/18 1/38/18 2/39/18
f 17/5/19 16/36/19 2/39/19 3/6/19
f 15/35/20 11/11/20 1/10/20
